# xmcd
#
# Track frame offsets:
#	150
#	1001
#	52800
#	63005
#	83788
#	92778
#	126877
#	137862
#	159149
#	167362
#	199547
#	203370
#	216780
#	232920
#	276674
#
# Disc length: 3883 seconds
#
# Revision: 1
# Processed by: cddbd v1.5.2PL0 Copyright (c) Steve Scherf et al.
# Submitted via: audiograbber 1.83.01
#
DISCID=b50f290f
DTITLE=Grateful Dead - 77-04-23 Springfield Civic Centre Arena, Springfield MA
DYEAR=1900
DGENRE=
TTITLE0=Tuning 1
TTITLE1=Sugaree
TTITLE2=Tuning 1
TTITLE3=Cassidy
TTITLE4=Tuning 1
TTITLE5=Loser
TTITLE6=Tuning 1
TTITLE7=New Minglewood Blues
TTITLE8=Tuning 1
TTITLE9=Ramble On Rose
TTITLE10=Tuning 1
TTITLE11=Me and My Uncle
TTITLE12=Tuning 1
TTITLE13=Row Jimmy
TTITLE14=Tuning 1
EXTD=
EXTT0=
EXTT1=
EXTT2=
EXTT3=
EXTT4=
EXTT5=
EXTT6=
EXTT7=
EXTT8=
EXTT9=
EXTT10=
EXTT11=
EXTT12=
EXTT13=
EXTT14=
PLAYORDER=
